<mxfile host="app.diagrams.net" modified="2022-03-03T06:34:21.084Z" agent="5.0 (Windows NT 10.0; Win64; x64) AppleWebKit/537.36 (KHTML, like Gecko) Chrome/98.0.4758.102 Safari/537.36" etag="IYw_Vrw15_gANiP5x927" version="16.6.4" type="github">
  <diagram id="R2lEEEUBdFMjLlhIrx00" name="Page-1">
    <mxGraphModel dx="2987" dy="995" grid="1" gridSize="10" guides="1" tooltips="1" connect="1" arrows="1" fold="1" page="1" pageScale="1" pageWidth="1100" pageHeight="850" math="0" shadow="0" extFonts="Permanent Marker^https://fonts.googleapis.com/css?family=Permanent+Marker">
      <root>
        <mxCell id="0" />
        <mxCell id="1" parent="0" />
        <mxCell id="wa6rgPkxSw3eKmAbPzhM-41" value="" style="endArrow=none;html=1;rounded=0;" edge="1" parent="1">
          <mxGeometry relative="1" as="geometry">
            <mxPoint x="-870" y="630" as="sourcePoint" />
            <mxPoint x="-390" y="760" as="targetPoint" />
            <Array as="points">
              <mxPoint x="-870" y="760" />
            </Array>
          </mxGeometry>
        </mxCell>
        <mxCell id="uLMN_BXOicq_y5eOb-Gw-1" value="Employee" style="rounded=0;whiteSpace=wrap;html=1;fillColor=#e1d5e7;strokeColor=#9673a6;" parent="1" vertex="1">
          <mxGeometry x="-390" y="250" width="120" height="40" as="geometry" />
        </mxCell>
        <mxCell id="uLMN_BXOicq_y5eOb-Gw-3" value="" style="endArrow=none;html=1;rounded=0;entryX=0.5;entryY=1;entryDx=0;entryDy=0;exitX=0.5;exitY=0;exitDx=0;exitDy=0;" parent="1" source="uLMN_BXOicq_y5eOb-Gw-1" target="uLMN_BXOicq_y5eOb-Gw-19" edge="1">
          <mxGeometry width="50" height="50" relative="1" as="geometry">
            <mxPoint x="-330" y="340" as="sourcePoint" />
            <mxPoint x="-340" y="90" as="targetPoint" />
          </mxGeometry>
        </mxCell>
        <mxCell id="uLMN_BXOicq_y5eOb-Gw-4" value="address" style="ellipse;whiteSpace=wrap;html=1;" parent="1" vertex="1">
          <mxGeometry x="-490" y="140" width="90" height="40" as="geometry" />
        </mxCell>
        <mxCell id="uLMN_BXOicq_y5eOb-Gw-7" value="Name" style="ellipse;whiteSpace=wrap;html=1;" parent="1" vertex="1">
          <mxGeometry x="-340" y="80" width="100" height="30" as="geometry" />
        </mxCell>
        <mxCell id="uLMN_BXOicq_y5eOb-Gw-8" value="" style="endArrow=none;html=1;rounded=0;entryX=0.607;entryY=0.972;entryDx=0;entryDy=0;exitX=0.39;exitY=0.015;exitDx=0;exitDy=0;exitPerimeter=0;entryPerimeter=0;" parent="1" source="uLMN_BXOicq_y5eOb-Gw-1" target="uLMN_BXOicq_y5eOb-Gw-17" edge="1">
          <mxGeometry width="50" height="50" relative="1" as="geometry">
            <mxPoint x="-350" y="170" as="sourcePoint" />
            <mxPoint x="-410" y="140" as="targetPoint" />
          </mxGeometry>
        </mxCell>
        <mxCell id="uLMN_BXOicq_y5eOb-Gw-9" value="" style="endArrow=none;html=1;rounded=0;entryX=0.5;entryY=1;entryDx=0;entryDy=0;exitX=0.667;exitY=0;exitDx=0;exitDy=0;exitPerimeter=0;" parent="1" source="uLMN_BXOicq_y5eOb-Gw-1" target="uLMN_BXOicq_y5eOb-Gw-7" edge="1">
          <mxGeometry width="50" height="50" relative="1" as="geometry">
            <mxPoint x="-330" y="340" as="sourcePoint" />
            <mxPoint x="-280" y="290" as="targetPoint" />
          </mxGeometry>
        </mxCell>
        <mxCell id="uLMN_BXOicq_y5eOb-Gw-10" value="" style="endArrow=none;html=1;rounded=0;entryX=0.5;entryY=1;entryDx=0;entryDy=0;" parent="1" target="uLMN_BXOicq_y5eOb-Gw-21" edge="1">
          <mxGeometry width="50" height="50" relative="1" as="geometry">
            <mxPoint x="-290" y="250" as="sourcePoint" />
            <mxPoint x="-231.90525172910748" y="188.27432996217658" as="targetPoint" />
          </mxGeometry>
        </mxCell>
        <mxCell id="uLMN_BXOicq_y5eOb-Gw-11" value="" style="endArrow=none;html=1;rounded=0;entryX=1;entryY=1;entryDx=0;entryDy=0;exitX=0.25;exitY=0;exitDx=0;exitDy=0;" parent="1" source="uLMN_BXOicq_y5eOb-Gw-1" target="uLMN_BXOicq_y5eOb-Gw-4" edge="1">
          <mxGeometry width="50" height="50" relative="1" as="geometry">
            <mxPoint x="-330" y="340" as="sourcePoint" />
            <mxPoint x="-280" y="290" as="targetPoint" />
          </mxGeometry>
        </mxCell>
        <mxCell id="uLMN_BXOicq_y5eOb-Gw-13" value="" style="endArrow=none;html=1;rounded=0;entryX=0.5;entryY=1;entryDx=0;entryDy=0;" parent="1" source="uLMN_BXOicq_y5eOb-Gw-12" target="uLMN_BXOicq_y5eOb-Gw-1" edge="1">
          <mxGeometry width="50" height="50" relative="1" as="geometry">
            <mxPoint x="-330" y="360" as="sourcePoint" />
            <mxPoint x="-280" y="390" as="targetPoint" />
          </mxGeometry>
        </mxCell>
        <mxCell id="uLMN_BXOicq_y5eOb-Gw-17" value="Phone" style="ellipse;shape=doubleEllipse;margin=3;whiteSpace=wrap;html=1;align=center;" parent="1" vertex="1">
          <mxGeometry x="-460" y="90" width="90" height="40" as="geometry" />
        </mxCell>
        <mxCell id="uLMN_BXOicq_y5eOb-Gw-19" value="Id" style="ellipse;whiteSpace=wrap;html=1;align=center;fontStyle=4;" parent="1" vertex="1">
          <mxGeometry x="-410" y="40" width="100" height="40" as="geometry" />
        </mxCell>
        <mxCell id="uLMN_BXOicq_y5eOb-Gw-20" value="Works on" style="shape=rhombus;perimeter=rhombusPerimeter;whiteSpace=wrap;html=1;align=center;fillColor=#d5e8d4;strokeColor=#82b366;" parent="1" vertex="1">
          <mxGeometry x="-210" y="240" width="120" height="50" as="geometry" />
        </mxCell>
        <mxCell id="uLMN_BXOicq_y5eOb-Gw-21" value="email" style="ellipse;shape=doubleEllipse;margin=3;whiteSpace=wrap;html=1;align=center;" parent="1" vertex="1">
          <mxGeometry x="-280" y="140" width="100" height="40" as="geometry" />
        </mxCell>
        <mxCell id="uLMN_BXOicq_y5eOb-Gw-23" value="Project" style="rounded=0;whiteSpace=wrap;html=1;fillColor=#e1d5e7;strokeColor=#9673a6;" parent="1" vertex="1">
          <mxGeometry x="-30" y="245" width="120" height="40" as="geometry" />
        </mxCell>
        <mxCell id="uLMN_BXOicq_y5eOb-Gw-27" value="" style="endArrow=none;html=1;rounded=0;dashed=1;dashPattern=1 2;exitX=1;exitY=0.5;exitDx=0;exitDy=0;" parent="1" source="uLMN_BXOicq_y5eOb-Gw-20" target="uLMN_BXOicq_y5eOb-Gw-23" edge="1">
          <mxGeometry relative="1" as="geometry">
            <mxPoint x="-390" y="410" as="sourcePoint" />
            <mxPoint x="-230" y="410" as="targetPoint" />
          </mxGeometry>
        </mxCell>
        <mxCell id="uLMN_BXOicq_y5eOb-Gw-28" value="N" style="resizable=0;html=1;align=right;verticalAlign=bottom;" parent="uLMN_BXOicq_y5eOb-Gw-27" connectable="0" vertex="1">
          <mxGeometry x="1" relative="1" as="geometry">
            <mxPoint x="-10" as="offset" />
          </mxGeometry>
        </mxCell>
        <mxCell id="uLMN_BXOicq_y5eOb-Gw-31" value="" style="endArrow=none;html=1;rounded=0;entryX=1;entryY=0.5;entryDx=0;entryDy=0;exitX=0;exitY=0.5;exitDx=0;exitDy=0;" parent="1" source="uLMN_BXOicq_y5eOb-Gw-20" target="uLMN_BXOicq_y5eOb-Gw-1" edge="1">
          <mxGeometry relative="1" as="geometry">
            <mxPoint x="-390" y="410" as="sourcePoint" />
            <mxPoint x="-230" y="410" as="targetPoint" />
          </mxGeometry>
        </mxCell>
        <mxCell id="uLMN_BXOicq_y5eOb-Gw-32" value="N" style="resizable=0;html=1;align=right;verticalAlign=bottom;" parent="uLMN_BXOicq_y5eOb-Gw-31" connectable="0" vertex="1">
          <mxGeometry x="1" relative="1" as="geometry">
            <mxPoint x="20" as="offset" />
          </mxGeometry>
        </mxCell>
        <mxCell id="uLMN_BXOicq_y5eOb-Gw-36" value="Receive" style="shape=rhombus;perimeter=rhombusPerimeter;whiteSpace=wrap;html=1;align=center;fillColor=#d5e8d4;strokeColor=#82b366;" parent="1" vertex="1">
          <mxGeometry x="-210" y="300" width="120" height="50" as="geometry" />
        </mxCell>
        <mxCell id="uLMN_BXOicq_y5eOb-Gw-37" value="Salary" style="rounded=0;whiteSpace=wrap;html=1;fillColor=#e1d5e7;strokeColor=#9673a6;" parent="1" vertex="1">
          <mxGeometry x="-30" y="510" width="120" height="40" as="geometry" />
        </mxCell>
        <mxCell id="uLMN_BXOicq_y5eOb-Gw-38" value="" style="endArrow=none;html=1;rounded=0;entryX=1;entryY=1;entryDx=0;entryDy=0;exitX=0;exitY=0.5;exitDx=0;exitDy=0;" parent="1" source="uLMN_BXOicq_y5eOb-Gw-36" target="uLMN_BXOicq_y5eOb-Gw-1" edge="1">
          <mxGeometry relative="1" as="geometry">
            <mxPoint x="-300" y="370" as="sourcePoint" />
            <mxPoint x="-140" y="370" as="targetPoint" />
          </mxGeometry>
        </mxCell>
        <mxCell id="uLMN_BXOicq_y5eOb-Gw-39" value="1" style="resizable=0;html=1;align=right;verticalAlign=bottom;" parent="uLMN_BXOicq_y5eOb-Gw-38" connectable="0" vertex="1">
          <mxGeometry x="1" relative="1" as="geometry">
            <mxPoint x="40" y="20" as="offset" />
          </mxGeometry>
        </mxCell>
        <mxCell id="uLMN_BXOicq_y5eOb-Gw-40" value="" style="endArrow=none;html=1;rounded=0;exitX=1;exitY=0.5;exitDx=0;exitDy=0;entryX=0.5;entryY=0;entryDx=0;entryDy=0;" parent="1" source="uLMN_BXOicq_y5eOb-Gw-36" target="uLMN_BXOicq_y5eOb-Gw-37" edge="1">
          <mxGeometry relative="1" as="geometry">
            <mxPoint x="-330" y="400" as="sourcePoint" />
            <mxPoint x="-170" y="400" as="targetPoint" />
            <Array as="points">
              <mxPoint x="-40" y="325" />
              <mxPoint x="-40" y="480" />
              <mxPoint x="30" y="480" />
            </Array>
          </mxGeometry>
        </mxCell>
        <mxCell id="uLMN_BXOicq_y5eOb-Gw-41" value="1" style="resizable=0;html=1;align=right;verticalAlign=bottom;" parent="uLMN_BXOicq_y5eOb-Gw-40" connectable="0" vertex="1">
          <mxGeometry x="1" relative="1" as="geometry">
            <mxPoint x="-10" as="offset" />
          </mxGeometry>
        </mxCell>
        <mxCell id="uLMN_BXOicq_y5eOb-Gw-42" value="give" style="shape=rhombus;perimeter=rhombusPerimeter;whiteSpace=wrap;html=1;align=center;fillColor=#d5e8d4;strokeColor=#82b366;" parent="1" vertex="1">
          <mxGeometry x="-550" y="360" width="120" height="50" as="geometry" />
        </mxCell>
        <mxCell id="uLMN_BXOicq_y5eOb-Gw-43" value="Attendance" style="rounded=0;whiteSpace=wrap;html=1;fillColor=#e1d5e7;strokeColor=#9673a6;" parent="1" vertex="1">
          <mxGeometry x="-710" y="365" width="120" height="40" as="geometry" />
        </mxCell>
        <mxCell id="uLMN_BXOicq_y5eOb-Gw-44" value="" style="endArrow=none;html=1;rounded=0;exitX=0;exitY=1;exitDx=0;exitDy=0;entryX=1;entryY=0.5;entryDx=0;entryDy=0;" parent="1" source="uLMN_BXOicq_y5eOb-Gw-1" target="uLMN_BXOicq_y5eOb-Gw-42" edge="1">
          <mxGeometry relative="1" as="geometry">
            <mxPoint x="-380" y="300" as="sourcePoint" />
            <mxPoint x="-220" y="300" as="targetPoint" />
          </mxGeometry>
        </mxCell>
        <mxCell id="uLMN_BXOicq_y5eOb-Gw-45" value="1" style="resizable=0;html=1;align=right;verticalAlign=bottom;" parent="uLMN_BXOicq_y5eOb-Gw-44" connectable="0" vertex="1">
          <mxGeometry x="1" relative="1" as="geometry" />
        </mxCell>
        <mxCell id="uLMN_BXOicq_y5eOb-Gw-46" value="" style="endArrow=none;html=1;rounded=0;exitX=0;exitY=0.5;exitDx=0;exitDy=0;entryX=1;entryY=0.5;entryDx=0;entryDy=0;" parent="1" source="uLMN_BXOicq_y5eOb-Gw-42" target="uLMN_BXOicq_y5eOb-Gw-43" edge="1">
          <mxGeometry relative="1" as="geometry">
            <mxPoint x="-380" y="300" as="sourcePoint" />
            <mxPoint x="-220" y="300" as="targetPoint" />
          </mxGeometry>
        </mxCell>
        <mxCell id="uLMN_BXOicq_y5eOb-Gw-47" value="N" style="resizable=0;html=1;align=right;verticalAlign=bottom;" parent="uLMN_BXOicq_y5eOb-Gw-46" connectable="0" vertex="1">
          <mxGeometry x="1" relative="1" as="geometry">
            <mxPoint x="21" as="offset" />
          </mxGeometry>
        </mxCell>
        <mxCell id="uLMN_BXOicq_y5eOb-Gw-48" value="Department" style="rounded=0;whiteSpace=wrap;html=1;fillColor=#e1d5e7;strokeColor=#9673a6;" parent="1" vertex="1">
          <mxGeometry x="270" y="130" width="120" height="40" as="geometry" />
        </mxCell>
        <mxCell id="uLMN_BXOicq_y5eOb-Gw-50" value="Has" style="shape=rhombus;perimeter=rhombusPerimeter;whiteSpace=wrap;html=1;align=center;fillColor=#d5e8d4;strokeColor=#82b366;" parent="1" vertex="1">
          <mxGeometry x="-30" y="130" width="120" height="40" as="geometry" />
        </mxCell>
        <mxCell id="uLMN_BXOicq_y5eOb-Gw-51" value="Admin" style="rounded=0;whiteSpace=wrap;html=1;fillColor=#e1d5e7;strokeColor=#9673a6;" parent="1" vertex="1">
          <mxGeometry x="-390" y="740" width="120" height="40" as="geometry" />
        </mxCell>
        <mxCell id="uLMN_BXOicq_y5eOb-Gw-52" value="Works in" style="shape=rhombus;perimeter=rhombusPerimeter;whiteSpace=wrap;html=1;align=center;fillColor=#d5e8d4;strokeColor=#82b366;" parent="1" vertex="1">
          <mxGeometry x="120" y="65" width="120" height="50" as="geometry" />
        </mxCell>
        <mxCell id="uLMN_BXOicq_y5eOb-Gw-53" value="Manage" style="shape=rhombus;perimeter=rhombusPerimeter;whiteSpace=wrap;html=1;align=center;fillColor=#d5e8d4;strokeColor=#82b366;" parent="1" vertex="1">
          <mxGeometry x="-210" y="640" width="120" height="50" as="geometry" />
        </mxCell>
        <mxCell id="uLMN_BXOicq_y5eOb-Gw-57" value="" style="endArrow=none;html=1;rounded=0;entryX=0.5;entryY=0;entryDx=0;entryDy=0;" parent="1" source="uLMN_BXOicq_y5eOb-Gw-1" target="uLMN_BXOicq_y5eOb-Gw-53" edge="1">
          <mxGeometry relative="1" as="geometry">
            <mxPoint x="-240" y="490" as="sourcePoint" />
            <mxPoint x="-150" y="580" as="targetPoint" />
            <Array as="points">
              <mxPoint x="-150" y="380" />
            </Array>
          </mxGeometry>
        </mxCell>
        <mxCell id="uLMN_BXOicq_y5eOb-Gw-59" value="" style="endArrow=none;html=1;rounded=0;exitX=0.667;exitY=0;exitDx=0;exitDy=0;exitPerimeter=0;entryX=0;entryY=0.5;entryDx=0;entryDy=0;" parent="1" source="uLMN_BXOicq_y5eOb-Gw-51" edge="1">
          <mxGeometry relative="1" as="geometry">
            <mxPoint x="-240" y="490" as="sourcePoint" />
            <mxPoint x="-210" y="665" as="targetPoint" />
            <Array as="points">
              <mxPoint x="-310" y="665" />
            </Array>
          </mxGeometry>
        </mxCell>
        <mxCell id="uLMN_BXOicq_y5eOb-Gw-60" value="" style="endArrow=none;html=1;rounded=0;exitX=1;exitY=0.5;exitDx=0;exitDy=0;" parent="1" target="uLMN_BXOicq_y5eOb-Gw-37" edge="1">
          <mxGeometry relative="1" as="geometry">
            <mxPoint x="-90" y="665" as="sourcePoint" />
            <mxPoint x="30" y="500" as="targetPoint" />
            <Array as="points">
              <mxPoint x="-50" y="665" />
              <mxPoint x="30" y="665" />
            </Array>
          </mxGeometry>
        </mxCell>
        <mxCell id="uLMN_BXOicq_y5eOb-Gw-62" value="" style="endArrow=none;html=1;rounded=0;entryX=1;entryY=0.5;entryDx=0;entryDy=0;exitX=0.5;exitY=1;exitDx=0;exitDy=0;" parent="1" source="uLMN_BXOicq_y5eOb-Gw-53" target="uLMN_BXOicq_y5eOb-Gw-48" edge="1">
          <mxGeometry relative="1" as="geometry">
            <mxPoint x="-90" y="724.41" as="sourcePoint" />
            <mxPoint x="70" y="724.41" as="targetPoint" />
            <Array as="points">
              <mxPoint x="-150" y="740" />
              <mxPoint x="500" y="730" />
              <mxPoint x="500" y="150" />
            </Array>
          </mxGeometry>
        </mxCell>
        <mxCell id="uLMN_BXOicq_y5eOb-Gw-64" value="" style="endArrow=none;html=1;rounded=0;exitX=0.921;exitY=-0.012;exitDx=0;exitDy=0;exitPerimeter=0;entryX=0;entryY=0.5;entryDx=0;entryDy=0;" parent="1" source="uLMN_BXOicq_y5eOb-Gw-1" target="uLMN_BXOicq_y5eOb-Gw-52" edge="1">
          <mxGeometry relative="1" as="geometry">
            <mxPoint x="-240" y="370" as="sourcePoint" />
            <mxPoint x="-80" y="370" as="targetPoint" />
            <Array as="points">
              <mxPoint x="-240" y="230" />
              <mxPoint x="-40" y="90" />
            </Array>
          </mxGeometry>
        </mxCell>
        <mxCell id="uLMN_BXOicq_y5eOb-Gw-65" value="" style="endArrow=none;html=1;rounded=0;entryX=0.5;entryY=0;entryDx=0;entryDy=0;" parent="1" source="uLMN_BXOicq_y5eOb-Gw-52" target="uLMN_BXOicq_y5eOb-Gw-48" edge="1">
          <mxGeometry relative="1" as="geometry">
            <mxPoint x="-90" y="89.41000000000003" as="sourcePoint" />
            <mxPoint x="-30" y="89" as="targetPoint" />
            <Array as="points">
              <mxPoint x="330" y="90" />
            </Array>
          </mxGeometry>
        </mxCell>
        <mxCell id="uLMN_BXOicq_y5eOb-Gw-66" value="" style="endArrow=none;html=1;rounded=0;entryX=1;entryY=0.5;entryDx=0;entryDy=0;exitX=0;exitY=0.5;exitDx=0;exitDy=0;" parent="1" source="uLMN_BXOicq_y5eOb-Gw-48" target="uLMN_BXOicq_y5eOb-Gw-50" edge="1">
          <mxGeometry relative="1" as="geometry">
            <mxPoint x="-240" y="370" as="sourcePoint" />
            <mxPoint x="-80" y="370" as="targetPoint" />
          </mxGeometry>
        </mxCell>
        <mxCell id="uLMN_BXOicq_y5eOb-Gw-67" value="" style="endArrow=none;html=1;rounded=0;entryX=0.5;entryY=1;entryDx=0;entryDy=0;" parent="1" source="uLMN_BXOicq_y5eOb-Gw-23" target="uLMN_BXOicq_y5eOb-Gw-50" edge="1">
          <mxGeometry relative="1" as="geometry">
            <mxPoint x="-240" y="370" as="sourcePoint" />
            <mxPoint x="-80" y="370" as="targetPoint" />
          </mxGeometry>
        </mxCell>
        <mxCell id="wa6rgPkxSw3eKmAbPzhM-25" value="" style="endArrow=none;html=1;rounded=0;entryX=0.5;entryY=1;entryDx=0;entryDy=0;exitX=0.5;exitY=0;exitDx=0;exitDy=0;" edge="1" parent="1" source="wa6rgPkxSw3eKmAbPzhM-16" target="uLMN_BXOicq_y5eOb-Gw-48">
          <mxGeometry relative="1" as="geometry">
            <mxPoint x="130" y="440" as="sourcePoint" />
            <mxPoint x="290" y="440" as="targetPoint" />
          </mxGeometry>
        </mxCell>
        <mxCell id="wa6rgPkxSw3eKmAbPzhM-27" value="Supervise" style="shape=rhombus;perimeter=rhombusPerimeter;whiteSpace=wrap;html=1;align=center;fillColor=#d5e8d4;strokeColor=#82b366;" vertex="1" parent="1">
          <mxGeometry x="-640" y="235" width="120" height="50" as="geometry" />
        </mxCell>
        <mxCell id="wa6rgPkxSw3eKmAbPzhM-28" value="" style="endArrow=none;html=1;rounded=0;entryX=0.5;entryY=1;entryDx=0;entryDy=0;exitX=0;exitY=0.75;exitDx=0;exitDy=0;" edge="1" parent="1" source="uLMN_BXOicq_y5eOb-Gw-1" target="wa6rgPkxSw3eKmAbPzhM-27">
          <mxGeometry relative="1" as="geometry">
            <mxPoint x="130" y="440" as="sourcePoint" />
            <mxPoint x="290" y="440" as="targetPoint" />
            <Array as="points">
              <mxPoint x="-420" y="310" />
              <mxPoint x="-580" y="310" />
            </Array>
          </mxGeometry>
        </mxCell>
        <mxCell id="wa6rgPkxSw3eKmAbPzhM-29" value="" style="endArrow=none;html=1;rounded=0;exitX=1;exitY=0.5;exitDx=0;exitDy=0;entryX=0;entryY=0.25;entryDx=0;entryDy=0;" edge="1" parent="1" source="wa6rgPkxSw3eKmAbPzhM-27" target="uLMN_BXOicq_y5eOb-Gw-1">
          <mxGeometry relative="1" as="geometry">
            <mxPoint x="130" y="440" as="sourcePoint" />
            <mxPoint x="-390" y="280" as="targetPoint" />
            <Array as="points">
              <mxPoint x="-440" y="260" />
            </Array>
          </mxGeometry>
        </mxCell>
        <mxCell id="wa6rgPkxSw3eKmAbPzhM-30" value="Leave" style="rounded=0;whiteSpace=wrap;html=1;fillColor=#e1d5e7;strokeColor=#9673a6;" vertex="1" parent="1">
          <mxGeometry x="-930" y="460" width="120" height="40" as="geometry" />
        </mxCell>
        <mxCell id="wa6rgPkxSw3eKmAbPzhM-31" value="Check" style="shape=rhombus;perimeter=rhombusPerimeter;whiteSpace=wrap;html=1;align=center;fillColor=#d5e8d4;strokeColor=#82b366;" vertex="1" parent="1">
          <mxGeometry x="-930" y="232.5" width="120" height="55" as="geometry" />
        </mxCell>
        <mxCell id="wa6rgPkxSw3eKmAbPzhM-32" value="" style="endArrow=none;html=1;rounded=0;exitX=0;exitY=0.5;exitDx=0;exitDy=0;entryX=0;entryY=0.5;entryDx=0;entryDy=0;" edge="1" parent="1" source="wa6rgPkxSw3eKmAbPzhM-31" target="wa6rgPkxSw3eKmAbPzhM-30">
          <mxGeometry relative="1" as="geometry">
            <mxPoint x="-800" y="420" as="sourcePoint" />
            <mxPoint x="-640" y="420" as="targetPoint" />
            <Array as="points">
              <mxPoint x="-1010" y="260" />
              <mxPoint x="-1010" y="480" />
            </Array>
          </mxGeometry>
        </mxCell>
        <mxCell id="wa6rgPkxSw3eKmAbPzhM-33" value="" style="endArrow=none;html=1;rounded=0;exitX=1;exitY=0.5;exitDx=0;exitDy=0;entryX=0;entryY=0;entryDx=0;entryDy=0;" edge="1" parent="1" source="wa6rgPkxSw3eKmAbPzhM-31" target="uLMN_BXOicq_y5eOb-Gw-1">
          <mxGeometry relative="1" as="geometry">
            <mxPoint x="-800" y="340" as="sourcePoint" />
            <mxPoint x="-640" y="340" as="targetPoint" />
            <Array as="points">
              <mxPoint x="-570" y="170" />
            </Array>
          </mxGeometry>
        </mxCell>
        <mxCell id="wa6rgPkxSw3eKmAbPzhM-35" value="Applies for" style="shape=rhombus;perimeter=rhombusPerimeter;whiteSpace=wrap;html=1;align=center;fillColor=#d5e8d4;strokeColor=#82b366;" vertex="1" parent="1">
          <mxGeometry x="-930" y="310" width="120" height="55" as="geometry" />
        </mxCell>
        <mxCell id="wa6rgPkxSw3eKmAbPzhM-36" value="" style="endArrow=none;html=1;rounded=0;exitX=1;exitY=0.5;exitDx=0;exitDy=0;entryX=0;entryY=0;entryDx=0;entryDy=0;" edge="1" parent="1" source="wa6rgPkxSw3eKmAbPzhM-35" target="uLMN_BXOicq_y5eOb-Gw-1">
          <mxGeometry relative="1" as="geometry">
            <mxPoint x="-510" y="420" as="sourcePoint" />
            <mxPoint x="-490" y="233" as="targetPoint" />
            <Array as="points">
              <mxPoint x="-560" y="200" />
            </Array>
          </mxGeometry>
        </mxCell>
        <mxCell id="wa6rgPkxSw3eKmAbPzhM-37" value="" style="endArrow=none;html=1;rounded=0;entryX=0.5;entryY=1;entryDx=0;entryDy=0;exitX=0.5;exitY=0;exitDx=0;exitDy=0;" edge="1" parent="1" source="wa6rgPkxSw3eKmAbPzhM-30" target="wa6rgPkxSw3eKmAbPzhM-35">
          <mxGeometry relative="1" as="geometry">
            <mxPoint x="-850" y="590" as="sourcePoint" />
            <mxPoint x="-690" y="590" as="targetPoint" />
          </mxGeometry>
        </mxCell>
        <mxCell id="wa6rgPkxSw3eKmAbPzhM-39" value="Approve" style="shape=rhombus;perimeter=rhombusPerimeter;whiteSpace=wrap;html=1;align=center;fillColor=#d5e8d4;strokeColor=#82b366;" vertex="1" parent="1">
          <mxGeometry x="-930" y="575" width="120" height="55" as="geometry" />
        </mxCell>
        <mxCell id="wa6rgPkxSw3eKmAbPzhM-40" value="" style="endArrow=none;html=1;rounded=0;exitX=0.5;exitY=0;exitDx=0;exitDy=0;entryX=0.5;entryY=1;entryDx=0;entryDy=0;" edge="1" parent="1" source="wa6rgPkxSw3eKmAbPzhM-39" target="wa6rgPkxSw3eKmAbPzhM-30">
          <mxGeometry relative="1" as="geometry">
            <mxPoint x="-300" y="560" as="sourcePoint" />
            <mxPoint x="-140" y="560" as="targetPoint" />
          </mxGeometry>
        </mxCell>
        <mxCell id="wa6rgPkxSw3eKmAbPzhM-22" value="" style="endArrow=none;html=1;rounded=0;exitX=1;exitY=0.5;exitDx=0;exitDy=0;entryX=0.5;entryY=0;entryDx=0;entryDy=0;" edge="1" parent="1" source="wa6rgPkxSw3eKmAbPzhM-16" target="wa6rgPkxSw3eKmAbPzhM-20">
          <mxGeometry relative="1" as="geometry">
            <mxPoint x="360" y="250" as="sourcePoint" />
            <mxPoint x="520" y="250" as="targetPoint" />
          </mxGeometry>
        </mxCell>
        <mxCell id="wa6rgPkxSw3eKmAbPzhM-23" value="" style="endArrow=none;html=1;rounded=0;exitX=0;exitY=0.5;exitDx=0;exitDy=0;entryX=0.5;entryY=0;entryDx=0;entryDy=0;" edge="1" parent="1" source="wa6rgPkxSw3eKmAbPzhM-16" target="wa6rgPkxSw3eKmAbPzhM-21">
          <mxGeometry relative="1" as="geometry">
            <mxPoint x="630" y="570" as="sourcePoint" />
            <mxPoint x="790" y="570" as="targetPoint" />
          </mxGeometry>
        </mxCell>
        <mxCell id="wa6rgPkxSw3eKmAbPzhM-8" value="" style="group" vertex="1" connectable="0" parent="1">
          <mxGeometry x="-460" y="430" width="260" height="40" as="geometry" />
        </mxCell>
        <mxCell id="uLMN_BXOicq_y5eOb-Gw-15" value="SE" style="rounded=0;whiteSpace=wrap;html=1;fillColor=#dae8fc;strokeColor=#6c8ebf;" parent="wa6rgPkxSw3eKmAbPzhM-8" vertex="1">
          <mxGeometry x="140" width="120" height="40" as="geometry" />
        </mxCell>
        <mxCell id="uLMN_BXOicq_y5eOb-Gw-16" value="SeniorSE" style="rounded=0;whiteSpace=wrap;html=1;fillColor=#dae8fc;strokeColor=#6c8ebf;" parent="wa6rgPkxSw3eKmAbPzhM-8" vertex="1">
          <mxGeometry width="120" height="40" as="geometry" />
        </mxCell>
        <mxCell id="uLMN_BXOicq_y5eOb-Gw-33" value="" style="endArrow=none;html=1;rounded=0;exitX=1;exitY=0.5;exitDx=0;exitDy=0;entryX=0.5;entryY=0;entryDx=0;entryDy=0;" parent="1" source="uLMN_BXOicq_y5eOb-Gw-12" target="uLMN_BXOicq_y5eOb-Gw-15" edge="1">
          <mxGeometry relative="1" as="geometry">
            <mxPoint x="-300" y="370" as="sourcePoint" />
            <mxPoint x="-140" y="370" as="targetPoint" />
          </mxGeometry>
        </mxCell>
        <mxCell id="uLMN_BXOicq_y5eOb-Gw-34" value="" style="endArrow=none;html=1;rounded=0;exitX=0;exitY=0.5;exitDx=0;exitDy=0;entryX=0.5;entryY=0;entryDx=0;entryDy=0;" parent="1" source="uLMN_BXOicq_y5eOb-Gw-12" target="uLMN_BXOicq_y5eOb-Gw-16" edge="1">
          <mxGeometry relative="1" as="geometry">
            <mxPoint x="-30" y="690" as="sourcePoint" />
            <mxPoint x="130" y="690" as="targetPoint" />
          </mxGeometry>
        </mxCell>
        <mxCell id="uLMN_BXOicq_y5eOb-Gw-12" value="d" style="ellipse;whiteSpace=wrap;html=1;aspect=fixed;" parent="1" vertex="1">
          <mxGeometry x="-350" y="350" width="40" height="40" as="geometry" />
        </mxCell>
        <mxCell id="uLMN_BXOicq_y5eOb-Gw-14" value="Trainee SE" style="rounded=0;whiteSpace=wrap;html=1;fillColor=#dae8fc;strokeColor=#6c8ebf;" parent="1" vertex="1">
          <mxGeometry x="-390" y="480" width="120" height="40" as="geometry" />
        </mxCell>
        <mxCell id="uLMN_BXOicq_y5eOb-Gw-35" value="" style="endArrow=none;html=1;rounded=0;exitX=0.5;exitY=1;exitDx=0;exitDy=0;entryX=0.5;entryY=0;entryDx=0;entryDy=0;" parent="1" source="uLMN_BXOicq_y5eOb-Gw-12" target="uLMN_BXOicq_y5eOb-Gw-14" edge="1">
          <mxGeometry relative="1" as="geometry">
            <mxPoint x="-300" y="370" as="sourcePoint" />
            <mxPoint x="-140" y="370" as="targetPoint" />
          </mxGeometry>
        </mxCell>
        <mxCell id="wa6rgPkxSw3eKmAbPzhM-20" value="QA" style="rounded=0;whiteSpace=wrap;html=1;fillColor=#dae8fc;strokeColor=#6c8ebf;" vertex="1" parent="1">
          <mxGeometry x="340" y="310" width="120" height="40" as="geometry" />
        </mxCell>
        <mxCell id="wa6rgPkxSw3eKmAbPzhM-21" value="R&amp;amp;D" style="rounded=0;whiteSpace=wrap;html=1;fillColor=#dae8fc;strokeColor=#6c8ebf;" vertex="1" parent="1">
          <mxGeometry x="200" y="310" width="120" height="40" as="geometry" />
        </mxCell>
        <mxCell id="wa6rgPkxSw3eKmAbPzhM-16" value="d" style="ellipse;whiteSpace=wrap;html=1;aspect=fixed;" vertex="1" parent="1">
          <mxGeometry x="310" y="230" width="40" height="40" as="geometry" />
        </mxCell>
        <mxCell id="wa6rgPkxSw3eKmAbPzhM-17" value="Tech Support" style="rounded=0;whiteSpace=wrap;html=1;fillColor=#dae8fc;strokeColor=#6c8ebf;" vertex="1" parent="1">
          <mxGeometry x="270" y="360" width="120" height="40" as="geometry" />
        </mxCell>
        <mxCell id="wa6rgPkxSw3eKmAbPzhM-18" value="" style="endArrow=none;html=1;rounded=0;exitX=0.5;exitY=1;exitDx=0;exitDy=0;entryX=0.5;entryY=0;entryDx=0;entryDy=0;" edge="1" parent="1" source="wa6rgPkxSw3eKmAbPzhM-16" target="wa6rgPkxSw3eKmAbPzhM-17">
          <mxGeometry relative="1" as="geometry">
            <mxPoint x="360" y="250" as="sourcePoint" />
            <mxPoint x="520" y="250" as="targetPoint" />
          </mxGeometry>
        </mxCell>
      </root>
    </mxGraphModel>
  </diagram>
</mxfile>
